<svg xmlns="http://www.w3.org/2000/svg" xmlns:xlink="http://www.w3.org/1999/xlink" width="512" zoomAndPan="magnify" viewBox="0 0 384 383.999986" height="512" preserveAspectRatio="xMidYMid meet" version="1.0"><defs><g/><clipPath id="884f27aba0"><path d="M 177 70.585938 L 202 70.585938 L 202 93 L 177 93 Z M 177 70.585938 " clip-rule="nonzero"/></clipPath><clipPath id="ff3fdeb344"><path d="M 184 206 L 196 206 L 196 239.335938 L 184 239.335938 Z M 184 206 " clip-rule="nonzero"/></clipPath><clipPath id="a2e373d213"><path d="M 109.351562 179 L 270.601562 179 L 270.601562 202 L 109.351562 202 Z M 109.351562 179 " clip-rule="nonzero"/></clipPath></defs><rect x="-38.4" width="460.8" fill="#ffffff" y="-38.399999" height="460.799983" fill-opacity="1"/><rect x="-38.4" width="460.8" fill="#ffffff" y="-38.399999" height="460.799983" fill-opacity="1"/><g clip-path="url(#884f27aba0)"><path fill="#009cda" d="M 201.886719 81.871094 C 200.460938 97.492188 177.996094 94.683594 177.996094 80.769531 C 177.996094 75.316406 180.261719 72.703125 183.660156 70.589844 C 180.023438 81.539062 193.703125 90.015625 201.886719 81.871094 Z M 201.886719 81.871094 " fill-opacity="1" fill-rule="evenodd"/></g><path fill="#009cda" d="M 122.617188 187.195312 C 112.082031 129.625 162.070312 149.988281 189.941406 98.707031 C 217.808594 149.988281 267.796875 129.625 257.265625 187.195312 C 205.886719 192.515625 173.980469 192.769531 122.617188 187.195312 Z M 122.617188 187.195312 " fill-opacity="1" fill-rule="evenodd"/><path fill="#009cda" d="M 188.789062 90.527344 L 191.09375 90.527344 L 191.09375 104.492188 L 188.789062 104.492188 Z M 188.789062 90.527344 " fill-opacity="1" fill-rule="evenodd"/><path fill="#009cda" d="M 189.941406 94.953125 C 191.648438 94.953125 193.035156 95.882812 193.035156 97.027344 C 193.035156 98.175781 191.648438 99.105469 189.941406 99.105469 C 188.230469 99.105469 186.84375 98.175781 186.84375 97.027344 C 186.84375 95.882812 188.230469 94.953125 189.941406 94.953125 Z M 189.941406 94.953125 " fill-opacity="1" fill-rule="evenodd"/><path fill="#009cda" d="M 133.6875 229.652344 C 129.652344 228.210938 125.738281 226.617188 121.957031 224.882812 L 121.957031 212.519531 C 121.957031 209.292969 124.597656 206.65625 127.824219 206.65625 C 131.046875 206.65625 133.6875 209.292969 133.6875 212.519531 Z M 133.6875 229.652344 " fill-opacity="1" fill-rule="evenodd"/><path fill="#009cda" d="M 164.746094 237.324219 C 160.765625 236.746094 156.851562 236.027344 153.015625 235.1875 L 153.015625 212.519531 C 153.015625 209.292969 155.65625 206.65625 158.882812 206.65625 C 162.105469 206.65625 164.746094 209.292969 164.746094 212.519531 Z M 164.746094 237.324219 " fill-opacity="1" fill-rule="evenodd"/><g clip-path="url(#ff3fdeb344)"><path fill="#009cda" d="M 195.804688 239.03125 C 193.859375 239.097656 191.90625 239.132812 189.941406 239.132812 C 187.972656 239.132812 186.019531 239.097656 184.074219 239.03125 L 184.074219 212.519531 C 184.074219 209.292969 186.714844 206.65625 189.941406 206.65625 C 193.164062 206.65625 195.804688 209.292969 195.804688 212.519531 Z M 195.804688 239.03125 " fill-opacity="1" fill-rule="evenodd"/></g><path fill="#009cda" d="M 226.863281 235.1875 C 223.027344 236.027344 219.113281 236.746094 215.132812 237.324219 L 215.132812 212.519531 C 215.132812 209.292969 217.773438 206.65625 221 206.65625 C 224.222656 206.65625 226.863281 209.292969 226.863281 212.519531 Z M 226.863281 235.1875 " fill-opacity="1" fill-rule="evenodd"/><path fill="#009cda" d="M 257.921875 224.882812 C 254.144531 226.617188 250.226562 228.210938 246.191406 229.652344 L 246.191406 212.519531 C 246.191406 209.292969 248.832031 206.65625 252.058594 206.65625 C 255.28125 206.65625 257.921875 209.292969 257.921875 212.519531 Z M 257.921875 224.882812 " fill-opacity="1" fill-rule="evenodd"/><g clip-path="url(#a2e373d213)"><path fill="#009cda" d="M 120.605469 191.976562 C 121.410156 190.320312 122.410156 188.707031 123.589844 187.140625 C 123.097656 184.441406 122.742188 181.910156 122.511719 179.542969 C 117.921875 182.617188 114.253906 186.023438 111.703125 189.664062 C 110.164062 190.421875 109.351562 191.214844 109.351562 192.027344 C 109.351562 197.449219 145.429688 201.839844 189.941406 201.839844 C 234.449219 201.839844 270.53125 197.449219 270.53125 192.027344 C 270.53125 191.21875 269.714844 190.421875 268.179688 189.664062 C 265.625 186.023438 261.957031 182.617188 257.367188 179.542969 C 257.136719 181.910156 256.78125 184.441406 256.289062 187.140625 C 257.472656 188.707031 258.472656 190.320312 259.273438 191.976562 C 245.226562 194.855469 219.4375 196.785156 189.941406 196.785156 C 160.445312 196.785156 134.652344 194.855469 120.605469 191.976562 Z M 120.605469 191.976562 " fill-opacity="1" fill-rule="evenodd"/></g><path fill="#009cda" d="M 114.632812 221.253906 C 113.945312 220.890625 113.265625 220.515625 112.585938 220.140625 L 112.585938 194.519531 L 114.632812 194.519531 Z M 114.632812 221.253906 " fill-opacity="1" fill-rule="evenodd"/><path fill="#009cda" d="M 267.292969 220.140625 C 266.617188 220.515625 265.933594 220.890625 265.246094 221.253906 L 265.246094 194.519531 L 267.292969 194.519531 Z M 267.292969 220.140625 " fill-opacity="1" fill-rule="evenodd"/><g fill="#009cda" fill-opacity="1"><g transform="translate(109.349888, 283.579839)"><g><path d="M 40.59375 -8.46875 C 40.59375 -7.5625 40.101562 -6.921875 39.125 -6.546875 C 38.144531 -6.179688 36.941406 -6 35.515625 -6 C 34.003906 -6 32.726562 -6.164062 31.6875 -6.5 C 30.644531 -6.84375 29.765625 -7.398438 29.046875 -8.171875 C 28.335938 -8.953125 27.71875 -9.984375 27.1875 -11.265625 C 26.664062 -12.554688 26.160156 -14.148438 25.671875 -16.046875 L 25.484375 -16.046875 C 23.867188 -12.722656 21.945312 -10.394531 19.71875 -9.0625 C 17.539062 -7.726562 14.363281 -7.0625 10.1875 -7.0625 C 5.5 -7.0625 3.15625 -8.488281 3.15625 -11.34375 C 3.15625 -12.363281 3.820312 -14.394531 5.15625 -17.4375 L 6.1875 -17.34375 C 6.28125 -14.488281 8.945312 -13.0625 14.1875 -13.0625 C 21.21875 -13.0625 24.734375 -15.554688 24.734375 -20.546875 C 24.734375 -21.390625 24.625 -22.472656 24.40625 -23.796875 C 24.1875 -25.128906 23.863281 -26.726562 23.4375 -28.59375 C 22.59375 -32.34375 22.171875 -34.960938 22.171875 -36.453125 C 22.171875 -37.878906 22.960938 -39.738281 24.546875 -42.03125 L 24.78125 -42.03125 L 28.265625 -21.34375 C 28.609375 -19.351562 28.992188 -17.726562 29.421875 -16.46875 C 29.859375 -15.21875 30.410156 -14.226562 31.078125 -13.5 C 31.742188 -12.769531 32.585938 -12.273438 33.609375 -12.015625 C 34.640625 -11.753906 35.894531 -11.625 37.375 -11.625 C 38.15625 -11.625 38.882812 -11.457031 39.5625 -11.125 C 40.25 -10.800781 40.59375 -10.300781 40.59375 -9.625 Z M 40.59375 -8.46875 "/></g></g></g><g fill="#009cda" fill-opacity="1"><g transform="translate(146.21085, 283.579839)"><g><path d="M 26.734375 -1.109375 L 23.8125 3.71875 L 19.203125 0.609375 L 22.078125 -4.28125 Z M 54.765625 -8.46875 C 54.765625 -8 54.59375 -7.609375 54.25 -7.296875 C 53.914062 -6.984375 53.492188 -6.734375 52.984375 -6.546875 C 52.472656 -6.367188 51.914062 -6.234375 51.3125 -6.140625 C 50.707031 -6.046875 50.15625 -6 49.65625 -6 C 48.289062 -6 46.945312 -6.019531 45.625 -6.0625 C 44.3125 -6.113281 43.066406 -6.1875 41.890625 -6.28125 C 40.710938 -6.375 39.632812 -6.492188 38.65625 -6.640625 C 37.675781 -6.796875 36.847656 -6.984375 36.171875 -7.203125 C 35.085938 -7.546875 34.265625 -8.070312 33.703125 -8.78125 C 33.148438 -9.5 32.875 -10.335938 32.875 -11.296875 C 32.875 -12.015625 32.957031 -12.71875 33.125 -13.40625 C 33.289062 -14.101562 33.546875 -14.875 33.890625 -15.71875 L 31.984375 -15.71875 C 27.742188 -15.71875 23.65625 -14.878906 19.71875 -13.203125 C 19.46875 -13.109375 19.046875 -12.90625 18.453125 -12.59375 C 17.867188 -12.289062 17.171875 -11.921875 16.359375 -11.484375 C 15.554688 -11.046875 14.675781 -10.570312 13.71875 -10.0625 C 12.757812 -9.550781 11.796875 -9.035156 10.828125 -8.515625 C 8.972656 -7.515625 7.003906 -6.84375 4.921875 -6.5 C 2.847656 -6.164062 0.742188 -6 -1.390625 -6 L 0.46875 -11.625 C 2.476562 -11.625 4.390625 -11.738281 6.203125 -11.96875 C 8.015625 -12.207031 9.945312 -12.757812 12 -13.625 C 16.269531 -15.414062 20.144531 -16.6875 23.625 -17.4375 L 16.265625 -20.125 C 13.484375 -21.125 11.175781 -21.625 9.34375 -21.625 C 7.726562 -21.625 5.757812 -21.265625 3.4375 -20.546875 C 4.550781 -25.503906 7.375 -27.984375 11.90625 -27.984375 C 13.019531 -27.984375 16.023438 -26.960938 20.921875 -24.921875 C 26.222656 -22.722656 31.148438 -21.375 35.703125 -20.875 C 36.691406 -20.75 37.914062 -20.660156 39.375 -20.609375 C 40.832031 -20.566406 42.554688 -20.546875 44.546875 -20.546875 L 43.328125 -15.90625 C 42.054688 -15.71875 40.816406 -15.625 39.609375 -15.625 C 38.898438 -15.625 38.242188 -15.628906 37.640625 -15.640625 C 37.035156 -15.660156 36.484375 -15.6875 35.984375 -15.71875 C 36.296875 -13.789062 37.863281 -12.582031 40.6875 -12.09375 C 41.207031 -12 41.898438 -11.921875 42.765625 -11.859375 C 43.640625 -11.796875 44.578125 -11.75 45.578125 -11.71875 C 46.585938 -11.6875 47.613281 -11.660156 48.65625 -11.640625 C 49.695312 -11.628906 50.648438 -11.625 51.515625 -11.625 C 51.890625 -11.625 52.269531 -11.566406 52.65625 -11.453125 C 53.039062 -11.347656 53.390625 -11.203125 53.703125 -11.015625 C 54.015625 -10.828125 54.269531 -10.617188 54.46875 -10.390625 C 54.664062 -10.160156 54.765625 -9.921875 54.765625 -9.671875 Z M 54.765625 -8.46875 "/></g></g></g><g fill="#009cda" fill-opacity="1"><g transform="translate(197.24909, 283.579839)"><g><path d="M 52.90625 -8.515625 C 52.90625 -7.703125 52.410156 -7.078125 51.421875 -6.640625 C 50.429688 -6.210938 49.222656 -6 47.796875 -6 C 45.691406 -6 44.0625 -6.804688 42.90625 -8.421875 C 41.851562 -9.753906 41.050781 -11.425781 40.5 -13.4375 L 40.359375 -13.4375 C 38.398438 -9.1875 35.859375 -7.0625 32.734375 -7.0625 C 30.066406 -7.0625 28.316406 -8.457031 27.484375 -11.25 L 27.390625 -11.25 C 25.710938 -9.207031 24.316406 -7.84375 23.203125 -7.15625 C 22.484375 -6.726562 21.679688 -6.363281 20.796875 -6.0625 C 19.921875 -5.769531 18.832031 -5.625 17.53125 -5.625 C 16.601562 -5.625 15.789062 -5.765625 15.09375 -6.046875 C 14.394531 -6.328125 13.796875 -6.664062 13.296875 -7.0625 C 12.796875 -7.46875 12.296875 -8.019531 11.796875 -8.71875 C 11.304688 -9.414062 10.875 -10.257812 10.5 -11.25 L 10.421875 -11.25 C 9.703125 -10.195312 8.960938 -9.328125 8.203125 -8.640625 C 7.441406 -7.960938 6.597656 -7.429688 5.671875 -7.046875 C 4.742188 -6.660156 3.707031 -6.390625 2.5625 -6.234375 C 1.414062 -6.078125 0.0976562 -6 -1.390625 -6 L 0.46875 -11.625 C 1.863281 -11.625 3.085938 -11.75 4.140625 -12 C 5.191406 -12.25 6.164062 -12.632812 7.0625 -13.15625 C 7.96875 -13.6875 8.820312 -14.359375 9.625 -15.171875 C 10.425781 -15.992188 11.28125 -16.992188 12.1875 -18.171875 L 12.734375 -18 C 12.890625 -16.757812 13.078125 -15.765625 13.296875 -15.015625 C 13.515625 -14.273438 13.796875 -13.640625 14.140625 -13.109375 C 14.472656 -12.585938 15.023438 -12.144531 15.796875 -11.78125 C 16.578125 -11.425781 17.398438 -11.25 18.265625 -11.25 C 19.910156 -11.25 21.222656 -11.4375 22.203125 -11.8125 C 23.179688 -12.1875 24.070312 -12.648438 24.875 -13.203125 C 25.925781 -13.941406 27.550781 -15.894531 29.75 -19.0625 L 30.3125 -18.875 C 30.40625 -15.375 31.769531 -13.625 34.40625 -13.625 C 36.976562 -13.625 38.992188 -15.46875 40.453125 -19.15625 L 41.1875 -19.15625 C 41.4375 -18.007812 41.773438 -16.976562 42.203125 -16.0625 C 42.640625 -15.144531 43.15625 -14.332031 43.75 -13.625 C 44.3125 -12.96875 45.007812 -12.46875 45.84375 -12.125 C 46.675781 -11.789062 47.945312 -11.625 49.65625 -11.625 C 50.519531 -11.625 51.273438 -11.453125 51.921875 -11.109375 C 52.578125 -10.765625 52.90625 -10.316406 52.90625 -9.765625 Z M 52.90625 -8.515625 "/></g></g></g><g fill="#009cda" fill-opacity="1"><g transform="translate(246.428013, 283.579839)"><g><path d="M 25.890625 -16.640625 C 25.890625 -15.960938 25.78125 -15.273438 25.5625 -14.578125 C 25.351562 -13.878906 25 -13.171875 24.5 -12.453125 C 24.007812 -11.742188 23.488281 -11.179688 22.9375 -10.765625 C 22.394531 -10.347656 21.910156 -10.140625 21.484375 -10.140625 C 20.578125 -10.140625 19.300781 -10.472656 17.65625 -11.140625 C 16.019531 -11.804688 14.085938 -12.941406 11.859375 -14.546875 C 11.171875 -13.460938 10.523438 -12.460938 9.921875 -11.546875 C 9.316406 -10.640625 8.847656 -9.984375 8.515625 -9.578125 C 7.796875 -8.742188 7.046875 -8.082031 6.265625 -7.59375 C 5.492188 -7.113281 4.695312 -6.757812 3.875 -6.53125 C 3.0625 -6.300781 2.210938 -6.15625 1.328125 -6.09375 C 0.441406 -6.03125 -0.460938 -6 -1.390625 -6 L 0.46875 -11.625 C 1.644531 -11.625 2.710938 -11.6875 3.671875 -11.8125 C 4.628906 -11.9375 5.535156 -12.210938 6.390625 -12.640625 C 7.242188 -13.078125 8.066406 -13.710938 8.859375 -14.546875 C 9.648438 -15.390625 10.460938 -16.539062 11.296875 -18 L 15.0625 -24.453125 C 15.75 -25.597656 16.492188 -26.425781 17.296875 -26.9375 C 18.097656 -27.445312 18.953125 -27.703125 19.859375 -27.703125 C 21.679688 -27.703125 23.195312 -26.171875 24.40625 -23.109375 C 25.394531 -20.660156 25.890625 -18.503906 25.890625 -16.640625 Z M 21.015625 -17.15625 C 21.015625 -17.925781 20.875 -18.632812 20.59375 -19.28125 C 20.3125 -19.9375 19.976562 -20.5 19.59375 -20.96875 C 19.207031 -21.4375 18.789062 -21.800781 18.34375 -22.0625 C 17.894531 -22.320312 17.5 -22.453125 17.15625 -22.453125 C 16.71875 -22.453125 16.304688 -22.226562 15.921875 -21.78125 C 15.535156 -21.332031 15.234375 -20.890625 15.015625 -20.453125 C 15.078125 -20.171875 15.269531 -19.875 15.59375 -19.5625 C 15.925781 -19.257812 16.351562 -18.953125 16.875 -18.640625 C 17.40625 -18.328125 18.019531 -18.039062 18.71875 -17.78125 C 19.414062 -17.519531 20.179688 -17.3125 21.015625 -17.15625 Z M 21.015625 -17.15625 "/></g></g></g></svg>